<?xml version="1.0" encoding="UTF-8" standalone="no"?>
<!-- Uploaded to: SVG Repo, www.svgrepo.com, Generator: SVG Repo Mixer Tools -->

<svg
   width="800"
   height="800"
   viewBox="0 0 24 24"
   fill="none"
   version="1.1"
   id="svg1"
   xmlns="http://www.w3.org/2000/svg"
   xmlns:svg="http://www.w3.org/2000/svg">
  <defs
     id="defs1" />
  <path
     d="M 22,3.47059 V 20.5294 c 0,0.39 -0.1549,0.7641 -0.4307,1.0399 C 21.2935,21.8451 20.9194,22 20.5294,22 H 3.47059 C 3.08056,22 2.70651,21.8451 2.43073,21.5693 2.15494,21.2935 2,20.9194 2,20.5294 V 3.47059 C 2,3.08056 2.15494,2.70651 2.43073,2.43073 2.70651,2.15494 3.08056,2 3.47059,2 H 20.5294 c 0.39,0 0.7641,0.15494 1.0399,0.43073 C 21.8451,2.70651 22,3.08056 22,3.47059 Z M 7.88235,9.64706 H 4.94118 V 19.0588 H 7.88235 Z M 8.14706,6.41177 C 8.14861,6.18929 8.10632,5.96869 8.02261,5.76255 7.93891,5.55642 7.81542,5.36879 7.65919,5.21039 7.50297,5.05198 7.31708,4.92589 7.11213,4.83933 6.90718,4.75277 6.68718,4.70742 6.46471,4.70588 H 6.41177 c -0.45243,0 -0.88633,0.17973 -1.20625,0.49964 -0.31991,0.31992 -0.49964,0.75382 -0.49964,1.20625 0,0.45242 0.17973,0.88632 0.49964,1.20624 C 5.52544,7.93792 5.95934,8.11765 6.41177,8.11765 6.63426,8.12312 6.85565,8.0847 7.06328,8.00458 7.27092,7.92447 7.46074,7.80422 7.62189,7.65072 7.78304,7.49722 7.91237,7.31346 8.00248,7.10996 8.09259,6.90646 8.14172,6.6872 8.14706,6.46471 Z M 19.0588,13.3412 c 0,-2.8294 -1.8,-3.92943 -3.5882,-3.92943 -0.5855,-0.02932 -1.1685,0.09538 -1.6907,0.36168 -0.5223,0.26625 -0.9656,0.66485 -1.2858,1.15595 H 12.4118 V 9.64706 H 9.64706 v 9.41174 h 2.94114 v -5.0059 c -0.0425,-0.5126 0.119,-1.0214 0.4494,-1.4157 0.3305,-0.3943 0.8031,-0.6423 1.3153,-0.6901 h 0.1118 c 0.9353,0 1.6294,0.5882 1.6294,2.0705 v 5.0412 h 2.9412 z"
     fill="#000000"
     id="path1"
     style="fill:#ffffff;fill-opacity:1" />
</svg>
